<svg id="myImg" class="mainimage" style="fill:#ff6565" role="img" xmlns="http://www.w3.org/2000/svg" viewBox="0 0 1000 1000"><title>Logout SVG icon</title><g><g><g><path d="M453,989.2h439.5c35.6,0,64.6-29,64.6-64.6V75.5c0-35.6-29-64.6-64.6-64.6H451.6c-20,0-36.2,16.2-36.2,36.2s16.2,36.2,36.2,36.2h433v833.3H453c-20,0-36.2,16.2-36.2,36.2C416.7,972.9,433,989.2,453,989.2z"></path><path d="M892.5,990H453c-20.5,0-37.1-16.6-37.1-37.1s16.6-37.1,37.1-37.1h430.8V84.2H451.6c-20.5,0-37.1-16.6-37.1-37.1S431.2,10,451.6,10h440.9c36.1,0,65.5,29.4,65.5,65.5v849.1C958,960.6,928.6,990,892.5,990z M453,917.5c-19.5,0-35.4,15.9-35.4,35.4c0,19.5,15.9,35.4,35.4,35.4h439.5c35.2,0,63.8-28.6,63.8-63.8V75.5c0-35.2-28.6-63.8-63.8-63.8H451.6c-19.5,0-35.4,15.9-35.4,35.4s15.9,35.4,35.4,35.4h433.9v835H453z"></path></g><g><path d="M476.3,227.8c-5.1-11.5-12.3-21.7-21.5-30.3c-17.6-16.5-40.6-25.6-64.7-25.6c0,0,0,0,0,0c-23.4,0-45.9,8.7-63.3,24.6l-253.2,231c-19.5,17.8-30.7,43.1-30.7,69.6c0,26.4,11.2,51.8,30.7,69.5l253.2,231c17.4,15.9,39.9,24.6,63.3,24.6c24.1,0,47.1-9.1,64.7-25.6c9.2-8.6,16.5-18.8,21.5-30.3c5.3-12.1,8.1-24.9,8.1-38.2v-33.4h236.1c51.9,0,94.1-42.2,94.1-94.1V393.6c0-51.9-42.2-94.1-94.1-94.1H484.4V266C484.4,252.7,481.7,239.9,476.3,227.8z M720.5,371.9c12,0,21.7,9.7,21.7,21.7v206.8c0,12-9.7,21.7-21.7,21.7H433.5c-12,0-21.7,9.7-21.7,21.7V728c0,13-10.6,21.7-21.8,21.7c-5,0-10.1-1.8-14.5-5.7L122.4,513c-9.4-8.6-9.4-23.4,0-32l253.2-231c4.3-3.9,9.4-5.7,14.5-5.7c11.2,0,21.8,8.7,21.8,21.7v84.2c0,12,9.7,21.7,21.7,21.7H720.5L720.5,371.9L720.5,371.9z"></path><path d="M390.1,823c-23.6,0-46.3-8.8-63.9-24.9L73,567.2c-19.7-18-31-43.5-31-70.2c0-26.6,11.3-52.2,31-70.2l253.2-231c17.6-16,40.3-24.9,63.9-24.9c24.3,0,47.5,9.2,65.3,25.8c9.3,8.7,16.6,19,21.7,30.6c5.4,12.2,8.1,25.1,8.1,38.6v32.6h235.3c52.4,0,95,42.6,95,95v206.8c0,52.4-42.6,95-95,95H485.2V728c0,13.4-2.7,26.4-8.1,38.6c-5.1,11.6-12.5,21.9-21.7,30.6C437.6,813.8,414.4,823,390.1,823z M390.1,172.7c-23.2,0-45.5,8.7-62.7,24.4l-253.2,231c-19.3,17.6-30.4,42.8-30.4,68.9c0,26.2,11.1,51.3,30.4,68.9l253.2,231c17.3,15.7,39.5,24.4,62.7,24.4c23.9,0,46.7-9,64.1-25.4c9.1-8.6,16.3-18.7,21.4-30.1c5.3-11.9,8-24.7,8-37.9v-34.3h237c51.4,0,93.3-41.9,93.3-93.3V393.6c0-51.4-41.9-93.3-93.3-93.3h-237V266c0-13.2-2.7-25.9-8-37.9c-5-11.4-12.2-21.5-21.4-30.1C436.8,181.7,414,172.7,390.1,172.7z M390.1,750.5c-5.6,0-10.8-2-15-5.9l-253.2-231c-4.7-4.3-7.3-10.3-7.3-16.6c0-6.3,2.7-12.4,7.3-16.6l253.2-231c4.2-3.9,9.4-5.9,15-5.9l0,0c10.9,0,22.6,8.6,22.6,22.5v84.2c0,11.5,9.3,20.8,20.8,20.8h286.9c6,0,11.7,2.3,15.9,6.6c4.3,4.3,6.6,9.9,6.6,15.9v206.8c0,12.4-10.1,22.5-22.5,22.5H433.5c-11.5,0-20.8,9.3-20.8,20.8V728C412.7,741.9,401,750.5,390.1,750.5z M390.1,245.2c-5.2,0-10,1.9-13.9,5.5L123,481.6c-4.3,3.9-6.8,9.5-6.8,15.4c0,5.8,2.5,11.4,6.8,15.4l253.2,231c3.9,3.6,8.7,5.5,13.9,5.5c13.1,0,20.9-10.6,20.9-20.9v-84.2c0-12.4,10.1-22.5,22.5-22.5h286.9c11.5,0,20.8-9.3,20.8-20.8V393.6c0-11.5-9.3-20.8-20.8-20.8H433.5c-12.4,0-22.5-10.1-22.5-22.5V266C411,255.8,403.2,245.2,390.1,245.2L390.1,245.2z"></path></g></g></g></svg>